<svg width="24" height="24" viewBox="0 0 24 24" fill="none" xmlns="http://www.w3.org/2000/svg">
<path fill-rule="evenodd" clip-rule="evenodd" d="M19.6922 4.91559C19.6963 4.68009 19.6085 4.44331 19.4288 4.2636C19.253 4.08783 19.0226 3.99996 18.7922 4H18.7922C19.0309 4 19.2599 4.09482 19.4286 4.2636C19.5974 4.43239 19.6922 4.66131 19.6922 4.9V4.91559ZM17.8922 7.07293V14.5549C17.8922 15.052 18.2952 15.4549 18.7922 15.4549C19.2893 15.4549 19.6922 15.052 19.6922 14.5549V4.91559M18.7922 4H9.1373C8.64025 4 8.2373 4.40294 8.2373 4.9C8.2373 5.39706 8.64025 5.8 9.1373 5.8H16.6196L4.36321 18.0564C4.01174 18.4078 4.01174 18.9777 4.36321 19.3292C4.71469 19.6806 5.28453 19.6806 5.63601 19.3292L17.8922 7.07293" fill="white"/>
</svg>
