<svg width="131" height="37" viewBox="0 0 131 37" fill="none" xmlns="http://www.w3.org/2000/svg">
<g clip-path="url(#clip0_259_4806)">
<path d="M55.2295 0.845703H58.578V6.72406L63.3029 0.845703H67.2882L61.2075 8.45536L67.8839 17.897H63.9602L58.5985 10.3075V17.897H55.25V0.845703H55.2295Z" fill="white"/>
<path d="M86.2496 3.84556L83.9282 6.01975C82.3464 4.38911 80.5797 3.56372 78.6076 3.56372C76.9436 3.56372 75.5467 4.1274 74.3963 5.23463C73.2459 6.34185 72.6912 7.73092 72.6912 9.36156C72.6912 10.509 72.9378 11.5156 73.4513 12.4014C73.9649 13.2872 74.6634 13.9716 75.5878 14.4749C76.5122 14.9782 77.5394 15.2198 78.6692 15.2198C79.6348 15.2198 80.5181 15.0386 81.2987 14.6964C82.0999 14.3541 82.9627 13.7099 83.9282 12.7839L86.1674 15.0789C84.8732 16.3069 83.6612 17.1524 82.5313 17.6356C81.3809 18.1187 80.0867 18.3402 78.6076 18.3402C75.8959 18.3402 73.6773 17.4946 71.9517 15.8237C70.2261 14.1327 69.3633 11.9786 69.3633 9.36156C69.3633 7.65039 69.7536 6.14054 70.5342 4.832C71.3149 3.50333 72.4447 2.43637 73.9033 1.65124C75.3618 0.845987 76.9436 0.443359 78.6281 0.443359C80.0661 0.443359 81.4425 0.745329 82.7778 1.32914C84.1337 1.91295 85.284 2.75847 86.2496 3.84556Z" fill="white"/>
<path d="M90.8303 0.845703H94.0556L98.1025 12.7433L102.17 0.845703H105.395L108.312 17.9171H105.108L103.238 7.14682L99.5405 17.9171H96.6234L92.9668 7.14682L91.0563 17.9171H87.8311L90.8303 0.845703Z" fill="white"/>
<path d="M55.6201 23.2715H56.0926V24.9625L57.9209 23.2715H58.5372L56.3391 25.2846L58.7016 27.7608H58.0853L56.0926 25.6671V27.7608H55.6201V23.2715Z" fill="white"/>
<path d="M60.92 24.3594C61.4336 24.3594 61.865 24.5406 62.2142 24.9231C62.5224 25.2653 62.6867 25.6679 62.6867 26.1309C62.6867 26.594 62.5224 26.9966 62.1937 27.3388C61.865 27.6811 61.4336 27.8622 60.92 27.8622C60.4064 27.8622 59.975 27.6811 59.6463 27.3388C59.3177 26.9966 59.1533 26.594 59.1533 26.1309C59.1533 25.6679 59.3177 25.2653 59.6258 24.9432C59.9545 24.5406 60.3859 24.3594 60.92 24.3594ZM60.92 24.7821C60.5502 24.7821 60.2421 24.9231 59.9956 25.1848C59.7285 25.4465 59.6053 25.7686 59.6053 26.1309C59.6053 26.3725 59.6669 26.594 59.7901 26.7953C59.9134 26.9966 60.0777 27.1576 60.2626 27.2784C60.4681 27.3992 60.694 27.4395 60.92 27.4395C61.1665 27.4395 61.3925 27.3791 61.5774 27.2784C61.7828 27.1576 61.9472 26.9966 62.0499 26.7953C62.1731 26.594 62.2348 26.3725 62.2348 26.1309C62.2348 25.7686 62.1115 25.4465 61.8444 25.1848C61.5774 24.9029 61.2692 24.7821 60.92 24.7821Z" fill="white"/>
<path d="M67.1651 24.4395H67.2883L68.4387 27.7611H67.9868L67.1445 25.3252L65.8503 27.7611H65.7476L64.4329 25.3252L63.5906 27.7611H63.1387L64.2891 24.4395H64.4123L65.7682 27.0364L67.1651 24.4395Z" fill="white"/>
<path d="M69.0752 24.4395H71.9101V27.7611H71.4787V24.8421H69.5066V27.7611H69.0752V24.4395Z" fill="white"/>
<path d="M75.7516 27.7611H75.2791L74.1492 25.3454L73.0194 27.7611H72.5469L74.1081 24.4395H74.1903L75.7516 27.7611Z" fill="white"/>
<path d="M79.2854 26.6544L79.6552 26.8355C79.5319 27.0771 79.3881 27.2583 79.2443 27.3992C79.08 27.5401 78.9157 27.6408 78.7102 27.7213C78.5048 27.8018 78.2994 27.8421 78.0323 27.8421C77.4777 27.8421 77.0463 27.6609 76.7381 27.3187C76.43 26.9563 76.2656 26.5537 76.2656 26.1108C76.2656 25.688 76.3889 25.3056 76.6559 24.9834C76.9846 24.5607 77.4366 24.3594 77.9912 24.3594C78.5664 24.3594 79.0389 24.5808 79.3676 25.0036C79.6141 25.3056 79.7374 25.688 79.7374 26.1309H76.697C76.697 26.5134 76.8408 26.8355 77.0668 27.0771C77.2928 27.3187 77.6009 27.4395 77.9707 27.4395C78.135 27.4395 78.3199 27.4193 78.4637 27.3589C78.6281 27.2986 78.7719 27.218 78.8746 27.1174C79.0184 27.0369 79.1416 26.8758 79.2854 26.6544ZM79.2854 25.7686C79.2238 25.5471 79.1416 25.3659 79.0389 25.225C78.9362 25.0841 78.7719 24.9835 78.6075 24.9029C78.4432 24.8224 78.2377 24.7821 78.0323 24.7821C77.7036 24.7821 77.416 24.8828 77.1695 25.1042C77.0052 25.2653 76.8614 25.4867 76.7792 25.7887L79.2854 25.7686Z" fill="white"/>
<path d="M80.5586 24.4395H80.99V25.8285L82.5513 24.4395H83.1676L81.442 25.9493L83.2908 27.741H82.6746L81.1133 26.211L80.9695 26.3318V27.741H80.5381V24.4395H80.5586Z" fill="white"/>
<path d="M87.0508 25.1244L86.7016 25.3257C86.3934 24.9432 86.0031 24.7419 85.4895 24.7419C85.0787 24.7419 84.7295 24.8627 84.4624 25.1244C84.1953 25.3861 84.0515 25.7082 84.0515 26.0705C84.0515 26.3121 84.1132 26.5336 84.2364 26.755C84.3597 26.9765 84.524 27.1375 84.75 27.2583C84.976 27.3791 85.2225 27.4395 85.4895 27.4395C85.9826 27.4395 86.3934 27.2382 86.7016 26.8557L87.0508 27.0771C86.8865 27.3187 86.681 27.4999 86.3934 27.6408C86.1264 27.7817 85.8182 27.8421 85.469 27.8421C84.9349 27.8421 84.4829 27.6811 84.1337 27.3388C83.7845 26.9966 83.5996 26.594 83.5996 26.1309C83.5996 25.8088 83.6818 25.5069 83.8461 25.2452C84.0105 24.9633 84.2364 24.762 84.524 24.601C84.8116 24.4399 85.1403 24.3594 85.4895 24.3594C85.7155 24.3594 85.921 24.3996 86.1469 24.46C86.3524 24.5204 86.5372 24.6211 86.681 24.7217C86.8248 24.8224 86.9481 24.9633 87.0508 25.1244Z" fill="white"/>
<path d="M90.2961 26.1512H88.324V27.7416H87.8926V24.4199H88.324V25.7285H90.2961V24.4199H90.7275V27.7416H90.2961V26.1512Z" fill="white"/>
<path d="M92.1247 25.748H92.5356C92.8643 25.748 93.1313 25.7681 93.3162 25.8285C93.5011 25.8889 93.6654 25.9896 93.8092 26.1708C93.953 26.3519 94.0147 26.5532 94.0147 26.7747C94.0147 27.0565 93.912 27.278 93.7271 27.4793C93.5422 27.6806 93.234 27.7611 92.8437 27.7611H91.7139V24.4395H92.1453L92.1247 25.748ZM92.1453 26.1506V27.3988H92.6383C93.234 27.3988 93.5216 27.1975 93.5216 26.7948C93.5216 26.674 93.4806 26.5734 93.4189 26.4526C93.3573 26.3318 93.2546 26.2714 93.1313 26.211C93.0081 26.1708 92.8026 26.1506 92.4945 26.1506H92.1453ZM94.6104 24.4395H95.0418V27.7611H94.6104V24.4395Z" fill="white"/>
<path d="M98.8216 26.6544L99.1913 26.8355C99.0681 27.0771 98.9243 27.2583 98.7805 27.3992C98.6161 27.5401 98.4518 27.6408 98.2464 27.7213C98.0409 27.8018 97.8355 27.8421 97.5685 27.8421C97.0138 27.8421 96.5824 27.6609 96.2742 27.3187C95.9661 26.9563 95.8018 26.5537 95.8018 26.1108C95.8018 25.688 95.925 25.3056 96.1921 24.9834C96.5208 24.5607 96.9727 24.3594 97.5274 24.3594C98.1026 24.3594 98.5751 24.5808 98.9037 25.0036C99.1503 25.3056 99.2735 25.688 99.2735 26.1309H96.2332C96.2332 26.5134 96.377 26.8355 96.6029 27.0771C96.8289 27.3187 97.137 27.4395 97.5068 27.4395C97.6712 27.4395 97.8561 27.4193 97.9999 27.3589C98.1642 27.2986 98.308 27.218 98.4107 27.1174C98.5751 27.0369 98.6983 26.8758 98.8216 26.6544ZM98.8216 25.7686C98.7599 25.5471 98.6778 25.3659 98.5751 25.225C98.4723 25.0841 98.308 24.9835 98.1437 24.9029C97.9793 24.8224 97.7739 24.7821 97.5685 24.7821C97.2398 24.7821 96.9522 24.8828 96.7057 25.1042C96.5413 25.2653 96.3975 25.4867 96.3153 25.7887L98.8216 25.7686Z" fill="white"/>
<path d="M105.169 25.1244L104.82 25.3257C104.512 24.9432 104.121 24.7419 103.608 24.7419C103.197 24.7419 102.848 24.8627 102.581 25.1244C102.314 25.3861 102.17 25.7082 102.17 26.0705C102.17 26.3121 102.231 26.5336 102.355 26.755C102.478 26.9765 102.642 27.1375 102.868 27.2583C103.094 27.3791 103.341 27.4395 103.608 27.4395C104.101 27.4395 104.512 27.2382 104.82 26.8557L105.169 27.0771C105.005 27.3187 104.799 27.4999 104.512 27.6408C104.245 27.7817 103.936 27.8421 103.587 27.8421C103.053 27.8421 102.601 27.6811 102.252 27.3388C101.903 26.9966 101.718 26.594 101.718 26.1309C101.718 25.8088 101.8 25.5069 101.964 25.2452C102.129 24.9633 102.355 24.762 102.642 24.601C102.93 24.4399 103.258 24.3594 103.608 24.3594C103.834 24.3594 104.039 24.3996 104.265 24.46C104.471 24.5204 104.655 24.6211 104.799 24.7217C104.943 24.8224 105.066 24.9633 105.169 25.1244Z" fill="white"/>
<path d="M106.443 24.4395V26.8955L108.929 24.4395H108.97V27.7611H108.538V25.3252L106.073 27.7611H106.012V24.4395H106.443Z" fill="white"/>
<path d="M113.222 25.1244L112.872 25.3257C112.564 24.9432 112.174 24.7419 111.66 24.7419C111.25 24.7419 110.9 24.8627 110.633 25.1244C110.366 25.3861 110.222 25.7082 110.222 26.0705C110.222 26.3121 110.284 26.5336 110.407 26.755C110.531 26.9765 110.695 27.1375 110.921 27.2583C111.147 27.3791 111.393 27.4395 111.66 27.4395C112.153 27.4395 112.564 27.2382 112.872 26.8557L113.222 27.0771C113.057 27.3187 112.852 27.4999 112.564 27.6408C112.297 27.7817 111.989 27.8421 111.64 27.8421C111.106 27.8421 110.654 27.6811 110.305 27.3388C109.955 26.9966 109.771 26.594 109.771 26.1309C109.771 25.8088 109.853 25.5069 110.017 25.2452C110.181 24.9633 110.407 24.762 110.695 24.601C110.983 24.4399 111.311 24.3594 111.66 24.3594C111.886 24.3594 112.092 24.3996 112.318 24.46C112.523 24.5204 112.708 24.6211 112.852 24.7217C112.996 24.8224 113.119 24.9633 113.222 25.1244Z" fill="white"/>
<path d="M113.674 24.4395H115.892V24.8018H114.989V27.741H114.557V24.8018H113.653V24.4395H113.674Z" fill="white"/>
<path d="M119.344 26.6544L119.714 26.8355C119.591 27.0771 119.447 27.2583 119.303 27.3992C119.139 27.5401 118.974 27.6408 118.769 27.7213C118.563 27.8018 118.358 27.8421 118.091 27.8421C117.536 27.8421 117.105 27.6609 116.797 27.3187C116.489 26.9563 116.324 26.5537 116.324 26.1108C116.324 25.688 116.447 25.3056 116.715 24.9834C117.043 24.5607 117.495 24.3594 118.05 24.3594C118.625 24.3594 119.098 24.5808 119.426 25.0036C119.673 25.3056 119.796 25.688 119.796 26.1309H116.756C116.756 26.5134 116.899 26.8355 117.125 27.0771C117.351 27.3187 117.66 27.4395 118.029 27.4395C118.194 27.4395 118.379 27.4193 118.522 27.3589C118.687 27.2986 118.83 27.218 118.933 27.1174C119.077 27.0369 119.2 26.8758 119.344 26.6544ZM119.344 25.7686C119.282 25.5471 119.2 25.3659 119.098 25.225C118.995 25.0841 118.83 24.9835 118.666 24.9029C118.502 24.8224 118.296 24.7821 118.091 24.7821C117.762 24.7821 117.475 24.8828 117.228 25.1042C117.064 25.2653 116.92 25.4867 116.838 25.7887L119.344 25.7686Z" fill="white"/>
<path d="M124.315 24.4395H124.439L125.589 27.7611H125.137L124.295 25.3252L123.001 27.7611H122.919L121.604 25.3252L120.762 27.7611H120.31L121.46 24.4395H121.583L122.939 27.0364L124.315 24.4395Z" fill="white"/>
<path d="M126.657 25.748H127.068C127.396 25.748 127.664 25.7681 127.848 25.8285C128.033 25.8889 128.198 25.9896 128.341 26.1708C128.485 26.3519 128.547 26.5532 128.547 26.7747C128.547 27.0565 128.444 27.278 128.259 27.4793C128.074 27.6806 127.766 27.7611 127.376 27.7611H126.246V24.4395H126.677L126.657 25.748ZM126.677 26.1506V27.3988H127.171C127.766 27.3988 128.054 27.1975 128.054 26.7948C128.054 26.674 128.013 26.5734 127.951 26.4526C127.89 26.3318 127.787 26.2714 127.664 26.211C127.54 26.1708 127.335 26.1506 127.027 26.1506H126.677ZM129.143 24.4395H129.574V27.7611H129.143V24.4395Z" fill="white"/>
<path d="M59.2149 31.9277H59.3381L60.4885 35.2494H60.0366L59.1943 32.8135L57.9001 35.2494H57.8179L56.5032 32.8135L55.6609 35.2494H55.209L56.3594 31.9277H56.4826L57.8385 34.5247L59.2149 31.9277Z" fill="white"/>
<path d="M62.7481 31.8477C63.2617 31.8477 63.6931 32.0288 64.0423 32.4113C64.3505 32.7536 64.5148 33.1562 64.5148 33.6192C64.5148 34.0822 64.3505 34.4849 64.0218 34.8271C63.6931 35.1693 63.2617 35.3505 62.7481 35.3505C62.2346 35.3505 61.8032 35.1693 61.4745 34.8271C61.1458 34.4849 60.9814 34.0822 60.9814 33.6192C60.9814 33.1562 61.1458 32.7536 61.4539 32.4315C61.7826 32.0288 62.2346 31.8477 62.7481 31.8477ZM62.7481 32.2704C62.3784 32.2704 62.0702 32.4113 61.8237 32.673C61.5772 32.9347 61.4334 33.2569 61.4334 33.6192C61.4334 33.8608 61.495 34.0822 61.6183 34.2835C61.7415 34.4849 61.9059 34.6459 62.0908 34.7667C62.2757 34.8875 62.5222 34.9278 62.7481 34.9278C62.9947 34.9278 63.2206 34.8674 63.4055 34.7667C63.6109 34.6459 63.7753 34.4849 63.878 34.2835C64.0013 34.0822 64.0629 33.8608 64.0629 33.6192C64.0629 33.2569 63.9396 32.9347 63.6726 32.673C63.4261 32.3912 63.0974 32.2704 62.7481 32.2704Z" fill="white"/>
<path d="M67.7199 33.659H65.7478V35.2494H65.3164V31.9277H65.7478V33.2363H67.7199V31.9277H68.1513V35.2494H67.7199V33.659Z" fill="white"/>
<path d="M69.5681 31.9277V34.3838L72.0538 31.9277H72.0949V35.2494H71.6635V32.8135L69.1983 35.2494H69.1367V31.9277H69.5681Z" fill="white"/>
<path d="M72.6709 31.9277H74.8896V32.2901H73.9857V35.2293H73.5543V32.3102H72.6504V31.9277H72.6709Z" fill="white"/>
<path d="M77.1075 31.8477C77.6211 31.8477 78.0525 32.0288 78.4017 32.4113C78.7099 32.7536 78.8742 33.1562 78.8742 33.6192C78.8742 34.0822 78.7099 34.4849 78.3812 34.8271C78.0525 35.1693 77.6211 35.3505 77.1075 35.3505C76.5939 35.3505 76.1625 35.1693 75.8338 34.8271C75.5052 34.4849 75.3408 34.0822 75.3408 33.6192C75.3408 33.1562 75.5052 32.7536 75.8133 32.4315C76.142 32.0288 76.5734 31.8477 77.1075 31.8477ZM77.087 32.2704C76.7172 32.2704 76.4091 32.4113 76.1625 32.673C75.916 32.9347 75.7722 33.2569 75.7722 33.6192C75.7722 33.8608 75.8339 34.0822 75.9571 34.2835C76.0804 34.4849 76.2447 34.6459 76.4296 34.7667C76.6145 34.8875 76.861 34.9278 77.087 34.9278C77.3335 34.9278 77.5595 34.8674 77.7443 34.7667C77.9498 34.6459 78.1141 34.4849 78.2168 34.2835C78.3401 34.0822 78.4017 33.8608 78.4017 33.6192C78.4017 33.2569 78.2785 32.9347 78.0114 32.673C77.7649 32.3912 77.4567 32.2704 77.087 32.2704Z" fill="white"/>
<path d="M79.6758 31.9288H80.1072V32.5327C80.2716 32.2911 80.477 32.1301 80.703 32.0093C80.9289 31.8885 81.1755 31.8281 81.4425 31.8281C81.915 31.8281 82.3259 31.9892 82.6751 32.3314C83.0243 32.6736 83.1887 33.0763 83.1887 33.5594C83.1887 34.0426 83.0243 34.4653 82.6751 34.8076C82.3464 35.1498 81.9355 35.3109 81.4425 35.3109C81.1755 35.3109 80.9289 35.2505 80.703 35.1498C80.477 35.0491 80.2716 34.868 80.0867 34.6667V36.4583H79.6553L79.6758 31.9288ZM81.422 32.2509C81.0522 32.2509 80.7235 32.3717 80.477 32.6334C80.2099 32.8951 80.0867 33.2172 80.0867 33.5997C80.0867 33.8614 80.1483 34.0828 80.251 34.2841C80.3743 34.4855 80.5386 34.6465 80.744 34.7673C80.9495 34.8881 81.1754 34.9485 81.422 34.9485C81.6479 34.9485 81.8739 34.8881 82.0793 34.7673C82.2848 34.6465 82.4491 34.4855 82.5724 34.264C82.6956 34.0426 82.7572 33.8211 82.7572 33.5997C82.7572 33.3581 82.6956 33.1367 82.5724 32.9354C82.4491 32.734 82.2848 32.5529 82.0793 32.4522C81.8739 32.3113 81.6685 32.2509 81.422 32.2509Z" fill="white"/>
<path d="M84.4412 31.9277V34.3838L86.9269 31.9277H86.9679V35.2494H86.5365V32.8135L84.0714 35.2494H84.0098V31.9277H84.4412Z" fill="white"/>
<path d="M90.3371 33.659H88.365V35.2494H87.9336V31.9277H88.365V33.2363H90.3371V31.9277H90.7685V35.2494H90.3371V33.659Z" fill="white"/>
<path d="M92.1863 32.3102V35.2494H91.7549V31.9277H93.46V32.3102H92.1863Z" fill="white"/>
<path d="M97.425 31.9282V35.2499H96.9936V34.6862C96.8087 34.9076 96.6033 35.0687 96.3773 35.1693C96.1513 35.27 95.9048 35.3304 95.6377 35.3304C95.1653 35.3304 94.7544 35.1693 94.4052 34.8271C94.0559 34.4849 93.8916 34.0822 93.8916 33.579C93.8916 33.0958 94.0559 32.6932 94.4052 32.3509C94.7544 32.0087 95.1653 31.8477 95.6377 31.8477C95.9254 31.8477 96.1719 31.908 96.3978 32.0288C96.6238 32.1496 96.8292 32.3107 96.9936 32.5523V31.9483L97.425 31.9282ZM95.6788 32.2503C95.4323 32.2503 95.2064 32.3107 95.0009 32.4315C94.7955 32.5523 94.6311 32.7133 94.5079 32.9146C94.3846 33.1159 94.323 33.3575 94.323 33.579C94.323 33.8205 94.3846 34.042 94.5079 34.2433C94.6311 34.4647 94.7955 34.6258 95.0009 34.7466C95.2064 34.8674 95.4323 34.9278 95.6583 34.9278C95.9048 34.9278 96.1308 34.8674 96.3362 34.7466C96.5416 34.6258 96.706 34.4647 96.8292 34.2634C96.9525 34.0621 96.9936 33.8407 96.9936 33.579C96.9936 33.1965 96.8703 32.8744 96.6033 32.6126C96.3773 32.3912 96.0692 32.2503 95.6788 32.2503Z" fill="white"/>
</g>
<g clip-path="url(#clip1_259_4806)">
<path d="M44.7159 31.2908L31.7837 28.5802L0 22.49L7.1871 20.3691L26.3178 24.8036L39.7035 28.1492L50.0887 30.9505L47.9954 31.3475L44.7159 31.2908Z" fill="white"/>
<path d="M39.4591 28.6474L35.505 1.31503L35.2841 1.16759L34.5514 1.15625L34.5049 2.82341L34.9584 2.83476L34.7375 2.98219L34.6561 3.0389L35.7492 12.2934L36.1795 13.246L38.2845 28.1938L37.9589 29.7929L36.1912 36.5183H36.2261L38.1217 36.4729L38.2961 35.5089L39.2847 29.8836L39.4591 28.6474Z" fill="white"/>
<path d="M32.9 13.3375H32.9116V13.3262L35.5632 13.2354H35.6562L35.2957 12.4302L33.6675 12.4756H33.6559L34.1443 6.1585L34.2025 3.1077L33.842 2.88088L34.2141 2.81283L34.2374 1.17969L33.5745 1.28176L30.8066 25.5067L31.8417 25.7448L33.1791 14.1427L32.9 13.3375Z" fill="white"/>
<path d="M31.307 28.8635H31.2139H31.1907L30.5394 28.7841L30.458 28.9996L30.5859 29.8728L32.028 36.5075H35.6681L35.9007 35.7816L35.3076 35.9177L34.633 35.9744L33.9585 35.8157L33.4468 35.5888L31.9815 30.3265L31.4698 29.8161H31.4814L31.4698 29.8048L32.5165 29.8275L37.4358 29.7027L37.68 28.6934L32.3769 28.8181L31.307 28.8635Z" fill="white"/>
<path d="M35.2959 0.873276L34.2493 0.895958L33.6445 0.986689L33.8888 0.0453643L35.0866 0L35.2262 0.147437L35.2959 0.873276Z" fill="white"/>
<path d="M37.1333 27.8988L8.52441 20.9806L33.7607 3.96875L37.1333 27.8988Z" fill="url(#paint0_linear_259_4806)"/>
<path d="M48.4142 30.7344L20.2705 23.9296L35.5053 3.74219L48.4142 30.7344Z" fill="url(#paint1_linear_259_4806)"/>
</g>
<defs>
<linearGradient id="paint0_linear_259_4806" x1="21.5718" y1="28.3717" x2="31.6486" y2="-4.77109" gradientUnits="userSpaceOnUse">
<stop offset="0.00405944" stop-color="white" stop-opacity="0"/>
<stop offset="0.998" stop-color="white"/>
</linearGradient>
<linearGradient id="paint1_linear_259_4806" x1="33.253" y1="29.7829" x2="46.5356" y2="-1.64129" gradientUnits="userSpaceOnUse">
<stop offset="0.00405944" stop-color="white" stop-opacity="0"/>
<stop offset="0.9944" stop-color="white"/>
</linearGradient>
<clipPath id="clip0_259_4806">
<rect width="76.8557" height="36.5385" fill="white" transform="translate(53.7061)"/>
</clipPath>
<clipPath id="clip1_259_4806">
<rect width="50.6461" height="36.5385" fill="white"/>
</clipPath>
</defs>
</svg>
